<?xml version="1.0" encoding="UTF-8"?>
<svg id="Capa_2" data-name="Capa 2" xmlns="http://www.w3.org/2000/svg" viewBox="0 0 1206.31 498.8">
  <defs>
    <style>
      .cls-1 {
        fill: #fd3910;
      }

      .cls-2 {
        fill: #f15a24;
      }

      .cls-3 {
        fill: #fe9b12;
      }

      .cls-4 {
        fill: #ff0;
      }
    </style>
  </defs>
  <g id="Final">
    <g>
      <g>
        <path class="cls-2" d="M602.29,273.96c-16.59,4.05-33.15,8.27-49.7,12.58-15.6,3.26-30.22,13.8-32.91,30.22-3.66,26.65-7.16,53.33-10.53,80.04-2.27,15.8,12.54,19.47,25.07,14.7,15.41-4.3,30.81-8.62,46.24-12.81,15.53-4.26,28.82-13.54,32.21-30,4.82-26.38,9.78-52.73,14.9-79.06,4.41-17.26-12.84-18.89-25.29-15.66Zm-227.86,70.66c.68-8.97,1.01-13.47,1.73-22.44-22.26,2.03-44.53,3.72-66.84,5.22-14.64-.02-29.83,7.64-30.48,23.68-.51,25.35-.86,50.7-1.06,76.05-.05,15.36,14.35,21.73,28.09,19.9,20.64-1.16,41.27-2.44,61.88-3.99,.41-8.44,.63-12.67,1.06-21.12-17.67,1.33-35.35,2.49-53.04,3.53,.75-25.51,1.64-51,2.69-76.5,18.67-1.27,37.32-2.69,55.97-4.34Zm-111.68,7.42c.45-16.74-15.57-20.89-29.49-19.92-13.44,.87-26.86,1.8-40.29,2.79-.06-4.24-.1-6.35-.14-10.59-13.78,1.16-27.52,2.42-41.28,3.8,1.53,37.38,3.43,74.73,5.68,112.08,12.8-1.51,25.66-2.77,38.5-3.82-.98-26.69-1.8-53.37-2.44-80.07,12.29-.95,18.45-1.38,30.77-2.16,.08,14.37,.24,28.73,.46,43.1-8.16,.59-12.25,.91-20.41,1.58,.22,8.76,.34,13.14,.59,21.9,8.14-.68,12.21-.98,20.35-1.58,.29,12.91,.45,19.36,.81,32.25,12.16-.78,24.32-1.47,36.47-2.11-.12-32.42,.02-64.83,.42-97.25Zm-197.79,2.73v.02l.04-.06s-.02,.01-.04,.04Zm-51.04-2.42h-.02s0,.06,0,.06c0,.37,.29,.45,.63,.46-.22-.17-.41-.34-.6-.52Z"/>
        <path class="cls-2" d="M637.58,268.75c-3.76-4.85-11.18-10.63-25.14-10.63-4.42,0-9.14,.62-13.66,1.78-15.01,3.66-30.76,7.64-49.52,12.54-13.66,2.93-25.23,9.81-33.14,19.13-.66-1-1.46-1.93-2.38-2.75-2.68-2.42-6.15-3.71-9.67-3.71-1.16,0-2.32,.13-3.47,.41-5.64,1.39-11.24,2.74-16.78,4.05,2.56-10.11,1.59-20.12-1.71-30-2.78-8.33-6.73-16.11-11.67-23.32-7.75-11.32-15.77-22.44-23.67-33.65,.06,6.43-2.08,12.23-5.11,17.79-.66,1.21-1.2,2.48-1.76,3.74-1.92,4.26-3,8.67-2.23,13.39,.02,.19-.24,.43-.39,.68-1.18-.08-1.88-.95-2.63-1.65-1.79-1.69-3.57-3.37-5.19-5.22-5.04-5.76-6.3-12.4-4.38-19.75,.94-3.57,2.4-6.94,3.73-10.37,1.23-3.14,2.43-6.29,3.42-9.5,1.96-6.29,1.33-12.44-1.63-18.3-1.17-2.32-2.56-4.54-3.99-6.71-1.34-2.05-2.79-4.05-4.32-5.95-2.5-3.08-3.3-6.46-2.33-10.33,.29-1.17,.94-2.37,.52-4.3-2.46,3.89-4.64,7.21-6.7,10.6-2.9,4.78-3.72,10.02-2.97,15.49,.24,1.8,.89,3.55,1.41,5.31,1.01,3.49-.39,5.33-4.01,5.16-.62-.02-1.22-.14-1.81-.28-5.63-1.34-9.48-7.4-8.24-13.06,.3-1.39,.79-2.73,1.38-4.73-5.33,3.71-7.67,8.32-8.21,13.92-.63,6.55,1.46,12.4,4.79,17.89,1.35,2.23,2.95,4.32,4.2,6.59,3.78,6.88,2.87,13.54-1.21,19.96-.12,.18-.54,.16-.82,.23-1.22-9.55-5.17-13.96-14.86-16.57-.47,.72-.25,1.47-.01,2.2,.71,2.07,.72,4.21,.78,6.35,.16,5.34-1.33,10.3-3.3,15.17-1.79,4.41-4.18,8.53-6.56,12.63-2.52,4.38-5.05,8.76-7.1,13.39-4.96,11.24-4.57,22.35,.72,33.32,3.22,6.67,7.67,12.03,13.1,16.3-.21,.77-.36,1.57-.45,2.39-1.44-.47-2.93-.71-4.47-.71-.43,0-.87,.01-1.32,.06-20.17,1.84-41.78,3.53-66.03,5.16-16.67,.12-30.53,7.22-38.15,18.39-.68-.87-1.4-1.71-2.19-2.51-7.19-7.39-18.07-11.29-31.45-11.29-1.58,0-3.19,.06-4.71,.17-8.76,.56-17.4,1.15-25.86,1.74-.8-2.2-2.13-4.2-3.89-5.81-2.68-2.44-6.16-3.77-9.75-3.77-.4,0-.81,.01-1.21,.05-14.06,1.18-28.03,2.46-41.52,3.83-6.82,.68-12.1,6.03-12.92,12.62-.59-.07-1.18-.12-1.79-.12s-1.27,.05-1.9,.13c-13.86,1.84-27.71,3.85-41.13,6-7.45,1.2-12.74,7.92-12.15,15.46,.12,1.56,.24,3.13,.37,4.7-2.6-3.38-5.21-6.75-7.81-10.11,.56-2.67,.63-5.41,.29-8.21-.7-5.87-2.95-11.16-6.09-16.11-.27-.42-.42-1.03-1.2-1.01,.43,1.8,.89,3.53,1.26,5.28,.19,.98,.29,1.98,.29,2.96-.02,1.55-.56,2.95-1.47,4.19-.66,.87-1.49,1.45-2.34,1.7-1.53-1.21-3.3-2.08-5.17-2.57-.21-.36-.4-.74-.58-1.11-.7-1.47-.85-3.07-.87-4.69-.07-4.3,1.14-8.27,3.31-11.97,1.22-2.07,2.45-4.11,3.56-6.22,1.8-3.49,1.87-7.09,.62-10.76-.81-2.38-2.03-4.55-3.54-6.56-1.92-2.57-3.88-5.08-5.85-7.61-.17-.22-.45-.33-.7-.5-.29,.69,.01,1.22,.19,1.78,.88,2.87,1.74,5.75,2.36,8.67,.36,1.69,.5,3.38,.3,5.06-.23,2.13-1.23,3.79-3.15,4.82-1.73,.91-3.25,.7-4.67-.65-.88-.85-1.41-1.9-1.79-3.07-.69-2.1-1.03-4.28-1.1-6.49-.16-4.67,.92-9.09,2.98-13.3,1.18-2.42,2.52-4.77,3.62-7.23,4.36-9.83,3.25-19.03-3.35-27.56-1.16-1.51-2.45-2.91-3.62-4.4-4.59-5.89-5.28-12.32-2.55-19.19,.18-.45,.29-.91,.45-1.38-.48-.25-.93-.02-1.33,.25-2.96,1.88-4.52,4.72-5.27,8.03-.65,2.79-.39,5.56,.34,8.3,.81,3.1,2.19,5.98,3.7,8.79,.75,1.43,1.52,2.81,2.21,4.25,.59,1.28,1,2.61,.94,4.05-.07,1.74-.83,3.07-2.22,4.06-1.85,1.32-4.03,.69-4.94-1.43-.46-1.11-.6-2.29-.59-3.51,.04-1.4,.11-2.8,.04-4.18-.13-3.43-1.49-6.39-3.78-8.9-.3-.35-.66-.76-1.21-.42,1.44,2.57,1.58,5.27,.88,8.08-.41,1.65-1,3.24-1.88,4.7-.74,1.18-1.45,2.39-2.17,3.57-1.45,2.4-1.93,4.99-1.63,7.75,.3,2.96,1.51,5.57,2.98,8.08,.7,1.2,1.44,2.38,2.08,3.62,.56,1.06,.99,2.19,.99,3.43-.02,1.68-.52,3.21-1.99,4.13-1.49,.94-3.06,.59-4.53-.28-.97-.56-1.78-1.29-2.48-2.15-3.33-4.09-4.7-8.72-3.74-13.96,.23-1.26,.57-2.5,.86-3.72-.56-.16-.88,0-1.17,.31-1.63,1.63-2.93,3.49-3.94,5.59-2.16,4.53-2.32,9.23-1.28,14.03,.82,3.8,2.22,7.43,3.5,11.11,1.11,3.21,2.11,6.45,2.56,9.82,.74,5.68-.91,10.24-6.07,13.21-.43,.24-.85,.52-1.28,.77-1.29,.75-2.62,1.45-3.89,2.23-4.19,2.61-6.45,6.43-7.11,11.24-.72,5.18-.02,10.18,1.73,14.98-3.04,3.03-4.67,7.37-4.15,11.9,5.01,43.91,10.6,88.42,16.64,132.27,.58,4.26,3.04,8.06,6.69,10.33,2.33,1.45,4.99,2.19,7.67,2.19,1.53,0,3.07-.24,4.57-.74,11.5-3.82,23.48-7.27,35.59-10.25,7.08-1.74,11.76-8.47,10.93-15.71-.33-2.9-.65-5.8-.98-8.71,2.33,3.61,4.66,7.25,6.99,10.89,2.69,4.21,7.33,6.69,12.21,6.69,.91,0,1.82-.08,2.73-.25,5.39-1.04,8.08-1.52,13.59-2.46,17.92-2.72,30.68-11.56,36.11-24.26,1.41,.45,2.89,.7,4.38,.7,.57,0,1.12-.04,1.69-.11,12.13-1.41,24.92-2.68,38.01-3.76,7.72-.64,13.57-7.23,13.3-14.99-.01-.34-.02-.68-.04-1.01,.24-.02,.5-.04,.74-.06,.13,5.16,.27,10.17,.46,17.04,.11,3.94,1.82,7.66,4.72,10.3,2.68,2.44,6.16,3.78,9.76,3.78,.31,0,.63-.01,.94-.02,11.16-.72,23.02-1.41,36.29-2.1,6.12-.33,11.17-4.41,13-9.94,6.74,5.18,15.52,8.01,25.22,8.01,1.96,0,3.93-.11,5.88-.35,23.49-1.32,43.09-2.58,61.65-3.99,7.29-.54,13.03-6.44,13.39-13.74,.18-3.9,.33-6.91,.48-9.84,1.53,.56,3.16,.86,4.83,.86,.4,0,.8-.02,1.21-.06,13.73-1.15,26.93-2.74,39.26-4.76,4.17-.68,7.71-3.1,9.87-6.49-.22,2.4-.42,4.83-.64,7.28-.4,4.55,1.38,9.02,4.78,12.07,2.68,2.4,6.12,3.68,9.65,3.68,.95,0,1.92-.08,2.87-.28,11.97-2.43,24.63-5.33,37.64-8.62,5.83-1.47,10.14-6.41,10.83-12.39,.17-1.46,.35-2.92,.52-4.38,5.29,4.6,12.44,7.11,20.51,7.11,4.82,0,9.87-.92,14.64-2.64l9.61-2.68c11.79-3.29,23.97-6.69,36-9.95,23.31-6.4,38.42-20.98,42.56-41.04,.02-.11,.05-.22,.07-.34,4.76-26.11,9.73-52.54,14.79-78.51,2.86-11.73-.66-19.52-4.15-24.01ZM114.42,463.94c-5.62,.97-8.42,1.46-14.01,2.54-13.08-20.48-26.4-40.82-40-60.97,2.33,22.75,4.79,45.49,7.38,68.22-12.32,3.03-24.65,6.57-36.7,10.57-6.01-43.74-11.52-87.54-16.53-131.41l-.02-.02c-.34-.01-.63-.08-.63-.46v-.07h.02c.04-1-.63-1.81-1.04-2.69-1.8-4.01-1.97-7.89-.48-11.71,.36-.93,.82-1.86,1.38-2.79,1.86-3.07,4.4-5.36,7.28-7.35,2.39-1.63,4.58-3.48,6.61-5.57,1.76-1.81,3.1-3.89,4.07-6.21,2.23-5.33,3.07-10.89,2.57-16.63-.14-1.57-.54-3.13-.89-4.67-.21-.77-.31-1.52-.25-2.31-.02,0-.02-.02-.02-.02v-.02s-.06-.02-.08-.05c-.02-.01-.05-.04-.07-.05-.06-.04-.1-.07-.13-.12-.07-.07-.13-.17-.17-.27-.01-.05-.04-.1-.05-.16-.02-.06-.04-.13-.04-.19-.01-.05-.01-.08-.01-.13-.01-.06-.01-.12-.02-.18-.01-.01-.01-.02-.02-.02,0-.02-.01-.04-.01-.05-.01,0-.02,0-.02-.01t.01,.02s-.07-.02-.1-.05c-.05-.02-.08-.05-.08-.06,.01-.08,.05-.12,.08-.1,.04,.01,.07,.08,.11,.19,.01,.01,.02,.02,.04,.02v.05s.01,0,.01,.01c.05,.01,.08,.04,.12,.07,.08,.06,.16,.13,.21,.22,.05,.05,.08,.11,.11,.18,.02,.06,.05,.11,.06,.16,.01,.06,.02,.12,.04,.17,.01,.06,.02,.12,.02,.18,.01,.05,.01,.1,.01,.14h0s.01,.02,.02,.02v.04c2.48,3.33,3.85,7.13,4.72,11.14,.42,2.05,.7,4.12,.7,6.23-.02,2.81-.47,5.54-1.26,8.22-.21,.68-.42,1.34-.57,2.03-.1,.53,.39,.98,.91,.86,2.21-.54,4.07-1.7,5.4-3.54,.93-1.27,1.92-2.51,2.73-3.91,.79-1.34,1.41-2.91,2.95-3.67h.01c.11-.11,.18-.18,.27-.28-.01,.07,0,.17-.05,.18-.05,.06-.14,.07-.22,.1-.08,.59-.11,1.2-.29,1.75-.5,1.62-.98,3.25-1.63,4.81-1.34,3.27-1.59,6.78-2.11,10.21,.13,1.11,.27,2.23,.46,3.33,.56,3.27,1.55,6.4,4.12,8.97,4.21,4.2,11.87,5.68,17.48,1.22,.3-.23,.63-.51,.99-.65,.27-.1,.6,0,.68,.39,.18,.79,0,1.56-.19,2.34-.86,3.49-1.67,6.97-2.85,10.36-.28,.74-.56,1.47-.43,2.28t.04-.04l-.04,.06v-.02c-.19,.16-.39,.33-.58,.48,11.75,15.17,23.33,30.46,34.77,45.86-1.57-18.15-3.07-36.3-4.5-54.46,13.57-2.17,27.11-4.14,40.74-5.95,1.69,32.46,3.64,64.91,5.86,97.34,.65,16.09-12.4,23.76-26.82,25.91Zm147.91-14.66c-12.15,.64-24.31,1.33-36.47,2.11-.36-12.89-.52-19.34-.81-32.25-8.14,.6-12.21,.91-20.35,1.58-.25-8.76-.37-13.14-.59-21.9,8.16-.68,12.25-.99,20.41-1.58-.22-14.37-.37-28.73-.46-43.1-12.32,.78-18.48,1.21-30.77,2.16,.64,26.7,1.46,53.38,2.44,80.07-12.84,1.05-25.7,2.31-38.5,3.82-2.25-37.34-4.14-74.7-5.68-112.08,13.76-1.39,27.5-2.64,41.28-3.8,.05,4.24,.08,6.35,.14,10.59,13.43-.99,26.85-1.92,40.29-2.79,13.92-.98,29.94,3.18,29.49,19.92-.4,32.42-.54,64.83-.42,97.25Zm-54.21-79.54c.53-.04,1.05-.07,1.57-.11,.05,4.72,.1,9.47,.16,14.19-.43,.04-.88,.07-1.33,.11-.14-4.73-.27-9.47-.4-14.19Zm165.74,38.61c-1.59-.59-3.3-.92-5.04-.92-.36,0-.72,.01-1.09,.04-11.8,.89-24.01,1.74-36.99,2.55,.51-15.8,1.07-31.69,1.69-47.51,12.42-.89,24.21-1.82,35.69-2.8-.6,1.44-.99,2.98-1.11,4.61-.65,8.9-.97,13.36-1.57,22.26-.29,4.24,1.29,8.39,4.34,11.36,1.35,1.32,2.92,2.33,4.61,3.03-.17,2.43-.35,4.83-.53,7.38Zm.58-63.73c-18.65,1.64-37.29,3.07-55.97,4.34-1.05,25.5-1.94,50.99-2.69,76.5,17.69-1.04,35.37-2.2,53.04-3.53-.43,8.45-.65,12.68-1.06,21.12-20.62,1.55-41.24,2.83-61.88,3.99-13.74,1.82-28.14-4.54-28.09-19.9,.21-25.35,.56-50.7,1.06-76.05,.65-16.04,15.85-23.71,30.48-23.68,22.31-1.5,44.58-3.19,66.84-5.22-.71,8.97-1.05,13.47-1.73,22.44Zm114.2,78.92c-12.23,3.1-24.59,5.95-36.96,8.45,1.64-18.71,3.35-37.43,5.16-56.12-11.32,2.45-16.98,3.59-28.33,5.56-.98,11.4-1.92,22.8-2.83,34.21-12.6,2.05-25.41,3.55-38.13,4.63,.93-13.47,1.43-20.19,2.45-33.68-4.05,.41-6.06,.6-10.11,.98,.6-8.88,.92-13.32,1.57-22.21,3.7-.35,5.54-.53,9.23-.92,1.28-16.86,2.62-33.73,4.01-50.59-.16-.07-.31-.16-.47-.23-.11-.92-.27-1.8-.78-2.61-2.71-4.23-4.61-8.76-5.91-13.5h-.01c-.54-2.02-.98-4.07-1.32-6.16-.45-2.73-.64-5.5,.27-8.18,.51-1.49-.23-3.43,1.68-4.69,.76,1.98,1.46,3.83,2.17,5.65,.17,.43,.47,.77,.99,.8,.54,.02,.83-.35,1.04-.76,.95-1.92,1.81-3.91,1.8-6.1-.02-2.64,.93-5.11,1.22-7.68,.04-.37,.53-.7,.8-1.03,1.76,.91,1.18,3.15,2.5,4.17,.74,.3,.88-.23,.99-.63,1.74-6.69,4.73-12.91,7.25-19.31,1.34-3.43,2.44-6.91,2.95-10.56,.06-.43,.08-.97,.58-1.03,.54-.07,.81,.43,.92,.87,.7,2.97,1.35,5.95,2.03,8.93,1.86,8.06,3.45,16.15,2.85,24.49-.04,.56,0,1.12,0,2.08,3.26-2.25,3.41-6.59,6.94-8.07,1.24,2.97,1.34,5.99,1.34,9.02,0,.24,.23,.59,.43,.68,.23,.08,.63,0,.81-.16,.46-.41,.89-.86,1.21-1.38,2.28-3.62,5.01-6.96,6.96-10.8,.21-.4,.5-.75,.89-1.32,1.32,1.84,1.35,3.66,1.86,5.33,1.09,3.54,1.92,7.08,1.71,10.82-.04,.56-.12,1.29,.68,1.51,.68,.19,1.18-.23,1.59-.65,2.89-2.96,6.14-5.56,8.49-9.02,.57-.85,1.17-1.81,2.62-2.1,.74,3.66,1.51,7.15,.77,11.05-.8,4.2-1.34,8.42-2.81,12.48-.23,.64-.47,1.27-.72,1.9-2.19,5.35-5.27,10.19-8.79,14.77-1.59,2.05-3.35,3.99-4.96,6.01-.36,.46-.5,1.11-.74,1.67-.14-.01-.29-.02-.43-.02-1.33,13.13-2.63,26.26-3.9,39.4,11.71-2.05,17.56-3.22,29.25-5.75,1.34-12.14,2.73-24.26,4.15-36.38,4.92-3.02,9.02-6.7,12.29-11.04,9.41-2.17,18.79-4.42,28.19-6.73-5.53,41.27-10.68,82.58-15.43,123.95Zm138.95-133.92c-5.12,26.33-10.08,52.68-14.9,79.06-3.39,16.46-16.68,25.74-32.21,30-15.43,4.19-30.83,8.51-46.24,12.81-12.54,4.77-27.34,1.1-25.07-14.7,3.37-26.7,6.87-53.38,10.53-80.04,2.69-16.41,17.31-26.96,32.91-30.22,16.55-4.31,33.1-8.54,49.7-12.58,12.45-3.22,29.7-1.59,25.29,15.66Z"/>
        <path class="cls-2" d="M1166.8,359.27s.05,.1,.08,.15c.05-.02,.1-.05,.14-.07-.07-.02-.16-.05-.23-.07Zm-122.05-7.68c3.64-7.89,5.46-11.84,9.12-19.71-22.77-8.3-45.56-16.57-68.47-24.47-13.49-5.7-30.99-4.75-37.51,10.16-4.96,12.15-7.43,18.22-12.31,30.4-.01,11.98,12.98,19.18,22.49,24.25,10.48,6.11,15.7,9.22,26.07,15.45-3.42,7.68-5.12,11.52-8.5,19.2-18.55-6.65-37.2-13.04-55.95-19.11-3.06,8.04-4.58,12.08-7.6,20.13,21.74,7.08,43.32,14.55,64.84,22.27,13.27,4.82,28.88,5.07,35.65-9.38,5.47-12.04,8.21-18.06,13.77-30.07,.97-12.16-11.94-19.88-21.47-25.08-10.41-6.23-15.64-9.35-26.16-15.5,3.29-7.73,4.93-11.59,8.24-19.31,19.31,6.78,38.56,13.74,57.79,20.77Zm-116.39-40.02c3.19-8.15,4.79-12.22,8.03-20.36-36.05-11.1-72.29-20.74-109.31-28-2.63,8.26-3.94,12.39-6.55,20.66,7.95,1.38,11.91,2.14,19.83,3.74-2.84,8.42-4.25,12.62-7.05,21.04-7.79-1.55-11.69-2.27-19.5-3.59-2.61,8.32-3.9,12.49-6.49,20.82,7.61,1.28,11.4,1.99,18.99,3.5-4.11,12.5-6.14,18.77-10.16,31.3-4.7,15,8.21,24.47,21.84,26.45,18.7,4.35,37.26,9.31,55.63,14.89,2.86-7.93,4.31-11.9,7.21-19.83-12.19-3.65-24.49-7.06-36.82-10.19-6.87-2.02-9.07-6.36-6.57-13.19,2.9-8.28,4.36-12.44,7.29-20.71,16.04,4.11,31.96,8.66,47.77,13.55,3.07-8.09,4.61-12.15,7.72-20.23-15.95-4.89-32-9.46-48.16-13.59,2.87-8.15,4.32-12.23,7.23-20.37,16.45,4.41,32.79,9.12,49.08,14.09Zm-221.65-52.97c-.24-.53-.62-.95-1.23-1.17-.02-.01-.06-.02-.08-.04,0,.06,0,.11,.02,.17,.07,.78,.53,1.28,1.16,1.64,.14,.08,.29,.16,.45,.23-.08-.29-.18-.58-.31-.83Zm95.64-13.58c.14,.33,.39,.6,.78,.82,.94,.5,1.69,.1,2.37-.4-1.05-.15-2.1-.29-3.15-.42Z"/>
        <path class="cls-2" d="M1205.39,298.11c-1.97-8.73-4.15-17.4-6.29-26.09-.25-1.04-.83-2-1.47-3.49-1.2,11.75-3.51,16.73-11.16,24.81-2.43,2.56-4.72,5.27-7.07,7.92-.58,.65-.93,1.62-2.08,1.34-8.62-15.05-11.98-34.96-8.89-53.07,.94-5.52,2.03-11,2.08-16.63,.04-5.4-1.39-10.31-4.34-14.81-3.57-5.42-8.33-9.77-13.56-15.49,.74,2.16,.99,3.04,1.32,3.88,2.17,5.53,2.56,11.29,1.76,17.08-.68,4.95-1.82,9.84-5.66,13.53l.05,.07s-.05-.04-.06-.05l-.47,.83c-.08-.24-.28-.5-.24-.7,.07-.37,.36-.41,.71-.13h0c-.57-.53-.72-1.2-.6-1.94,.3-1.86,.17-3.71-.05-5.57-.97-8.07-4.6-14.94-9.59-21.12-3.29-4.07-6.96-7.8-10.41-11.73-2.83-3.22-5.78-6.36-8.35-9.81-8.53-11.45-11.21-24.17-7.85-38.1,.43-1.81,.82-3.65,1.27-5.45,1.22-4.96-.28-9.21-3.43-13-2.05-2.46-4.52-4.44-7.31-6.03-.22,.33-.53,.46-.93,.42,2.55,4.78,3.3,9.87,2.44,15.18-.72,4.52-2.79,8.5-5.19,12.31-2.2,3.47-4.61,6.8-6.93,10.18-2.55,3.71-4.88,7.52-6.47,11.74-2.58,6.82-2.32,13.53,.85,20.11,1.71,3.55,3.89,6.82,6.53,9.75,3.25,3.6,6.59,7.13,9.98,10.6,3.66,3.77,7.16,7.64,9.87,12.15,6.03,10.02,5.64,19.83-1.14,29.36-3.06,4.3-6.84,7.9-11.01,11.1-1.92,1.49-3.89,2.91-5.82,4.37-3.54,2.68-5.18,6.27-5.14,10.66,0,1.12,.02,2.25,.06,3.37,.21,6.71,.45,13.43,.62,20.14,.01,.75,.56,1.74-.8,2.48-6.87-10.95-16.07-18.72-29.79-21.74,1.81,1.52,2.95,2.49,4.09,3.43,9.84,8.07,16.41,18.27,19.82,30.49,1,3.6,1.73,7.27,2.57,10.91,.65,2.81,1.29,5.64,2.04,8.43-6.56-2.38-13.51-4.89-20.97-7.61,.05-1.99-.33-4-1.1-5.88-1.56-3.76-4.61-6.68-8.43-8.07-23.07-8.41-45.65-16.59-68.27-24.4-6.63-2.73-13.71-4.18-20.49-4.18-7.23,0-13.88,1.67-19.57,4.75,.72-3.18,.39-6.51-1.04-9.48-1.75-3.65-4.94-6.4-8.8-7.6-38.48-11.85-73.54-20.91-107.05-27.62,1.97-3.13,3.65-6.47,5.02-10.04,6.88-17.8,5.41-35.49-1.03-53.06-.43-1.2-1.1-2.31-1.7-3.42-.51-.92-1.14-1.7-2.45-1.38-.71,2.23-.06,4.42,.34,6.63,1.04,5.81,1.16,11.65,.69,17.54-.33,4.13-1.45,8.03-3.21,11.74-1.11,2.32-2.55,4.41-4.72,5.91-4.21,2.89-8.88,1.33-10.19-3.65-1.12-4.28-1-8.65,.48-12.83,1.35-3.84,2.98-7.58,4.6-11.33,1.51-3.51,3.3-6.91,4.71-10.46,3.62-9.05,3.37-18-1.41-26.56-2.48-4.46-5.33-8.7-8.07-13-3.03-4.75-5.8-9.58-7.42-15.04-1.27-4.28-1.46-8.5-.69-12.85,.18-1,1.52-2.03,0-3.31-3.94,3.01-5.5,7.21-6.59,11.73-1.56,6.41-.41,12.68,.82,18.95,.87,4.5,1.92,8.97,2.78,13.48,.58,3.04,.46,6.12-.43,9.11-1.59,5.31-6.44,7.44-11.47,5.22-3-1.33-4.98-3.66-6.11-6.55-1.03-2.57-1.82-5.34-2.13-8.09-1.47-12.98,.36-25.46,6.5-37.13,2.14-4.06,4.57-7.96,6.82-11.96,2.14-3.78,4.15-7.6,5.53-11.75,1.82-5.46,2.4-11,.86-16.56-2.36-8.49-6.79-15.74-13.68-21.36-.85,2.48,.33,4.89,.31,7.36-.05,4.23-.82,8.19-3.85,11.29-2.96,3.04-6.45,5.16-10.95,3.97-3.42-.91-5.28-4.55-5.47-10.01-.19-5.43,1.11-10.63,2.43-15.83,1.57-6.18,3.31-12.33,4.58-18.56,1.38-6.7,.43-13.28-2.81-19.34-4.61-8.6-11.58-14.76-20.57-18.6-.13-.06-.42,.24-.64,.37-.08,.18-.28,.45-.22,.54,.95,1.5,1.94,2.97,2.93,4.44,5.66,8.45,6.84,17.49,3.19,26.97-1.46,3.79-3.47,7.38-5.31,11.01-2.09,4.09-4.44,8.06-6.36,12.21-3.66,7.93-4.3,16.15-2.09,24.66,1.35,5.23,3.33,10.18,5.95,14.87,2.49,4.44,5.22,8.77,7.85,13.14,2.26,3.72,4.38,7.5,5.75,11.64,4.78,14.6-5.7,31.05-20.99,33-.5,.07-1.01,.1-1.52,.11-5.68,.05-9.29-3.18-9.31-8.82-.01-3.8,.58-7.62,.97-11.43,.4-4.06,.98-8.1,1.3-12.17,.57-7.34-1.06-14.19-4.98-20.47-1.9-3.03-3.77-6.07-5.63-9.12-2.43-3.96-3.97-8.25-4.82-12.81-.25-1.35,.35-3.01-1.18-4.01-.24,.47-.56,.89-.7,1.36-2.11,6.39-.89,12.63,.89,18.82,1.4,4.9,3.09,9.72,4.49,14.63,1.41,4.96,1.78,10.02,.87,15.16-.64,3.64-2.17,6.81-4.75,9.42-3.85,3.93-9.96,4.9-14.83,2.5-4.19-2.07-5.6-5.53-5.05-11.73,.22-2.4,1.57-4.7,.94-7.39-5,3.33-7.36,6.71-8.62,12.2-2.03,8.76,.08,16.68,4.98,24,3.31,4.96,7.69,8.83,12.49,12.31,3.09,2.23,6.29,4.43,9.01,7.09,8.89,8.64,7.23,21.61-3.48,27.85-7.1,4.13-14.59,4.25-22.15,1.39-2.79-1.05-4.58-3.21-5.19-6.17-.31-1.5-.47-3.03-.63-4.55-.47-4.47-.92-8.95-1.36-13.37-1.24,.24-1.28,1.09-1.49,1.8-.51,1.7-1.06,3.41-1.43,5.16-4.52,21.79-.68,42.09,11.17,60.86,.29,.47,.59,.94,.89,1.41-1.35,1.65-2.33,3.62-2.84,5.8-2.07,8.82-3.08,13.24-5.11,22.08-.98,4.29,.05,8.79,2.77,12.22-3.88,1.86-6.81,5.4-7.84,9.75-2.11,8.95-3.16,13.43-5.23,22.4-1.05,4.55,.14,9.32,3.24,12.84,2.77,3.14,6.74,4.92,10.88,4.92h.18c-.17,.71-.35,1.45-.54,2.22-3.1,.29-5.06,.51-8.57,.91-6.11,.7-11.11,5.19-12.48,11.18-2.07,9.08-3.08,13.64-5.11,22.73-1.01,4.6,.27,9.41,3.43,12.9,2.77,3.03,6.67,4.73,10.72,4.73,.59,0,1.2-.04,1.8-.11,11.21-1.41,16.51-1.91,27.02-2.54h.13c24.73-1.7,41.35-13.43,46.8-33.02,.01-.05,.02-.11,.04-.16,2.28-8.55,3.79-14.2,5.59-20.81,10.56,.79,21.99,2.15,35.18,4.18,.74,.11,1.47,.17,2.21,.17,.95,0,1.9-.11,2.81-.29,1.2,.56,2.45,.98,3.78,1.21,.88,.15,1.7,.28,2.48,.41-1.52,4.71-3.04,9.42-5.07,15.76-2.97,9.49-1.85,19.08,3.14,27.03,5.92,9.41,16.75,15.94,29.78,18,18.28,4.28,36.5,9.15,54.15,14.52,1.4,.43,2.83,.63,4.22,.63,2.09,0,4.13-.46,5.99-1.3,1.79,3.04,4.63,5.35,8,6.45,20.06,6.53,41.13,13.77,64.38,22.11,7,2.55,13.8,3.83,20.21,3.83,15.13,0,27.35-7.54,33.53-20.68,.02-.06,.05-.12,.07-.17,5.5-12.1,8.19-18,13.72-29.99,.72-1.56,1.16-3.22,1.29-4.93,1.29-16.28-9.98-26.94-19.7-33.45,4.73,1.71,9.71,3.53,14.94,5.43-.14,2.17,.17,4.36,.99,6.43,1.53,3.82,4.61,6.8,8.48,8.21,0,0,10.34,3.78,13.56,4.96-10.53,21.32-20.98,42.8-31.18,64.07-1.76,3.67-1.9,7.92-.36,11.7,1.52,3.77,4.58,6.74,8.39,8.15,13.5,5,25.43,9.36,36.47,13.32,1.61,.57,3.26,.85,4.89,.85,5.34,0,10.42-2.96,12.95-7.97,11.33-22.52,22.95-45.25,34.6-67.73,3.18,.53,6.29,.8,9.32,.8,14.71,0,26.7-6.32,34.08-17.84,1.15-1.38,2.05-2.96,2.64-4.69,3.53-6.51,5.66-10.42,9.58-17.55,2.07-3.78,2.36-8.27,.77-12.28-.48-1.24-1.15-2.4-1.93-3.45,1.09-.98,2.14-2.01,3.15-3.08,6.96-7.34,12.9-15.48,18.43-23.91,5.19-7.92,6.57-16.56,4.5-25.71Zm-400.54,5.35c-2.63,8.51-3.94,12.78-6.53,21.32-15.99-2.46-32.1-4.38-48.27-4.99-3.53,12.86-5.27,19.31-8.7,32.22-4.35,15.63-18.78,21.4-33.83,22.43-11.2,.68-16.79,1.22-27.96,2.62,2.02-9.07,3.03-13.6,5.08-22.66,3.73-.42,5.6-.63,9.35-.98,6.1-.5,9.96-4.03,11.63-10.78,2.11-8.71,3.18-13.06,5.33-21.75-7.62,.42-11.43,.74-19.02,1.5,2.07-8.95,3.1-13.41,5.22-22.34,7.51-.76,11.27-1.06,18.79-1.5,2.42-8.78,3.65-13.16,6.11-21.92-7.93,.35-11.9,.64-19.81,1.36,1.75-7.67,2.75-12,4.34-18.79-.63-.36-1.09-.86-1.16-1.64-.02-.06-.02-.11-.02-.17,.02,.01,.06,.02,.08,.04,.54-2.9-.98-5.37-1.78-7.96-.71-2.29-1.32-4.6-1.85-6.92-1.26-5.58-2.02-11.21-2.48-16.85,1.62-.97,1.93,.34,2.48,.93,1.65,1.82,3.53,1.98,5.5,.75,2.8-1.75,5.8-3.33,8.24-5.52,7.04-6.29,13.85-12.83,18.55-21.21,4.59-8.18,7.33-16.78,6.58-26.23-.17-2.02-.78-3.99-1.14-5.98-.34-1.88,.89-3.38,2.46-2.69,6.62,2.96,11.28-.69,15.83-4.53,5.35-4.52,8.62-10.65,12.35-16.44,.93-1.46,1.24-3.37,3.43-4.47,1.44,1.26,.69,3.15,1.07,4.69,.36,1.47,.91,2.93,1.12,4.43,.97,6.59,3.04,12.81,5.4,19.05,3.49,9.28,6.85,18.64,8.74,28.43,.36,1.9,1.84,2.26,3.33,.88,2.26-2.07,4.42-4.21,6.09-6.84,1.2-1.88,2.63-3.63,4.37-4.55,1.49,.43,1.4,1.28,1.38,1.97-.12,2.8,.04,5.68-.58,8.36-.65,2.79-.57,5.58-.98,8.32-1.59,10.89-1.53,21.84-1.55,32.79,0,1.79-.04,3.57,.04,5.35,.04,.62-.01,1.29,.24,1.84,1.05,.13,2.1,.28,3.15,.42,.13-.1,.27-.19,.39-.29,2.8-2.2,5.54-4.49,8.38-6.64,.52-.4,1.55-.63,2.08-.37,1.04,.48,1.03,1.63,.75,2.63-.54,2.03-1.01,4.09-1.62,6.1-.27,.92-.56,1.81-.91,2.69-1.59,4.05-2.04,7.93-1.04,11.67,.52,1.96,1.44,3.86,2.78,5.75,.08-.04,.16-.08,.24-.12-1.76,5.4-3.06,9.36-5.16,15.88-7.07-1.17-14.14-2.25-21.26-3.16-5.69,1.5-11.53,2.27-17.58,2.37-4.12,.06-8.19-.04-12.26-.3-1.58,5.54-2.72,9.57-4.59,16.22,16.46,.86,32.87,2.97,49.14,5.6Zm88.77,98.57c-18.37-5.58-36.93-10.54-55.63-14.89-13.62-1.98-26.53-11.45-21.84-26.45,4.02-12.54,6.05-18.8,10.16-31.3-7.58-1.51-11.38-2.22-18.99-3.5,2.58-8.33,3.88-12.5,6.49-20.82,7.81,1.32,11.71,2.04,19.5,3.59,2.8-8.42,4.21-12.62,7.05-21.04-7.92-1.61-11.88-2.37-19.83-3.74,2.61-8.27,3.91-12.4,6.55-20.66,37.02,7.26,73.26,16.9,109.31,28-3.24,8.14-4.84,12.21-8.03,20.36-16.29-4.98-32.63-9.69-49.08-14.09-2.91,8.14-4.36,12.22-7.23,20.37,16.16,4.13,32.21,8.7,48.16,13.59-3.1,8.08-4.65,12.14-7.72,20.23-15.81-4.89-31.73-9.44-47.77-13.55-2.93,8.27-4.4,12.43-7.29,20.71-2.5,6.82-.3,11.17,6.57,13.19,12.33,3.13,24.64,6.55,36.82,10.19-2.9,7.93-4.35,11.9-7.21,19.83Zm11.36-33.71c-10.91-3.27-21.76-6.32-32.34-9.06,.46-1.32,.89-2.55,1.3-3.74,11.14,3.03,22.62,6.38,34.28,9.98,1.43,.45,2.86,.65,4.29,.65,4.4,0,8.57-2,11.32-5.43,3.95,8.71,11.55,14.86,18.56,19.25-6.15-2.05-12.23-4.06-18.24-6-1.47-.47-2.98-.7-4.46-.7-2.26,0-4.46,.54-6.44,1.52-1.85-3.1-4.78-5.42-8.27-6.46Zm139.77-16.74c-19.23-7.03-38.48-14-57.79-20.77-3.31,7.72-4.95,11.58-8.24,19.31,10.52,6.15,15.75,9.26,26.16,15.5,9.53,5.21,22.44,12.92,21.47,25.08-5.56,12.02-8.3,18.03-13.77,30.07-6.78,14.46-22.38,14.2-35.65,9.38-21.52-7.72-43.1-15.19-64.84-22.27,3.02-8.06,4.54-12.09,7.6-20.13,18.76,6.06,37.4,12.45,55.95,19.11,3.38-7.68,5.08-11.52,8.5-19.2-10.37-6.23-15.59-9.34-26.07-15.45-9.5-5.07-22.5-12.27-22.49-24.25,4.88-12.17,7.34-18.25,12.31-30.4,6.52-14.9,24.02-15.86,37.51-10.16,22.91,7.9,45.7,16.17,68.47,24.47-3.66,7.87-5.48,11.82-9.12,19.71Zm112.2,27.8c.07,.02,.11,.04,.19,.06-.1,.01-.14,.02-.23,.04-8.21,14.76-24.87,14.6-39.2,9.57-.04-.01-.06-.01-.1-.02-.19,.06-.29,.1-.47,.17-13.47,25.86-26.75,51.8-39.85,77.84-12.14-4.35-24.24-8.78-36.33-13.26,12.58-26.23,25.34-52.37,38.28-78.43-11.49-4.17-17.25-6.27-28.76-10.48,3.95-8.06,5.94-12.08,9.94-20.12,13.03,4.75,26.07,9.47,39.13,14.15,3.06,1.1,6.1,2.19,9.15,3.27,6.22,2.37,10.88,.54,14.03-5.41,.47-.91,.89-1.71,1.29-2.46,1.75-5.13,4.18-9.98,7.02-14.64,1.3-2.15,2.61-4.29,3.96-6.41,.94-1.5,1.9-2.98,2.89-4.44,6.14-9.12,6.67-19.06,4.47-29.42-.04-.16,.08-.35,.13-.56,.86-.63,1.23,.12,1.64,.65,.57,.72,1,1.58,1.65,2.23,7.75,7.68,11.15,17.42,13.18,27.79,.82,4.21,1.5,8.45,2.33,12.67,.59,3.07,1.27,6.11,2.13,9.13,.8,2.8,1.82,5.5,3.37,7.97,.07,.02,.16,.05,.23,.07,.24,.08,.48,.16,.72,.24-4.35,7.92-6.51,11.88-10.81,19.81Z"/>
      </g>
      <g>
        <g>
          <path class="cls-4" d="M114.42,463.94c-5.62,.97-8.42,1.46-14.01,2.54-13.08-20.48-26.4-40.82-40-60.97,2.33,22.75,4.79,45.49,7.38,68.22-12.32,3.03-24.65,6.57-36.7,10.57-6.01-43.74-11.52-87.54-16.53-131.41l-.02-.02c-.22-.17-.41-.34-.6-.52,.04-1.01-.63-1.82-1.04-2.71-1.8-4.01-1.97-7.89-.48-11.71,.36-.93,.82-1.86,1.38-2.79,1.86-3.07,4.4-5.36,7.28-7.35,2.39-1.63,4.58-3.48,6.61-5.57,1.76-1.81,3.1-3.89,4.07-6.21,2.23-5.33,3.07-10.89,2.57-16.63-.14-1.57-.54-3.13-.89-4.67-.21-.77-.31-1.52-.25-2.31,2.48,3.33,3.85,7.13,4.72,11.14,.42,2.05,.7,4.12,.7,6.23-.02,2.81-.47,5.54-1.26,8.22-.21,.68-.42,1.34-.57,2.03-.1,.53,.39,.98,.91,.86,2.21-.54,4.07-1.7,5.4-3.54,.93-1.27,1.92-2.51,2.73-3.91,.79-1.34,1.41-2.91,2.95-3.67h.01c-.08,.59-.11,1.2-.29,1.75-.5,1.62-.98,3.25-1.63,4.81-1.34,3.27-1.59,6.78-2.11,10.21,.13,1.11,.27,2.23,.46,3.33,.56,3.27,1.55,6.4,4.12,8.97,4.21,4.2,11.87,5.68,17.48,1.22,.3-.23,.63-.51,.99-.65,.27-.1,.6,0,.68,.39,.18,.79,0,1.56-.19,2.34-.86,3.49-1.67,6.97-2.85,10.36-.28,.74-.56,1.47-.43,2.28-.19,.16-.39,.33-.58,.48,11.75,15.17,23.33,30.46,34.77,45.86-1.57-18.15-3.07-36.3-4.5-54.46,13.57-2.17,27.11-4.14,40.74-5.95,1.69,32.46,3.64,64.91,5.86,97.34,.65,16.09-12.4,23.76-26.82,25.91Z"/>
          <path class="cls-4" d="M262.75,352.03c.45-16.74-15.57-20.89-29.49-19.92-13.44,.87-26.86,1.8-40.29,2.79-.06-4.24-.1-6.35-.14-10.59-13.78,1.16-27.52,2.42-41.28,3.8,1.53,37.38,3.43,74.73,5.68,112.08,12.8-1.51,25.66-2.77,38.5-3.82-.98-26.69-1.8-53.37-2.44-80.07,12.29-.95,18.45-1.38,30.77-2.16,.08,14.37,.24,28.73,.46,43.1-8.16,.59-12.25,.91-20.41,1.58,.22,8.76,.34,13.14,.59,21.9,8.14-.68,12.21-.98,20.35-1.58,.29,12.91,.45,19.36,.81,32.25,12.16-.78,24.32-1.47,36.47-2.11-.12-32.42,.02-64.83,.42-97.25Z"/>
          <path class="cls-4" d="M374.43,344.62c.68-8.97,1.01-13.47,1.73-22.44-22.26,2.03-44.53,3.72-66.84,5.22-14.64-.02-29.83,7.64-30.48,23.68-.51,25.35-.86,50.7-1.06,76.05-.05,15.36,14.35,21.73,28.09,19.9,20.64-1.16,41.27-2.44,61.88-3.99,.41-8.44,.63-12.67,1.06-21.12-17.67,1.33-35.35,2.49-53.04,3.53,.75-25.51,1.64-51,2.69-76.5,18.67-1.27,37.32-2.69,55.97-4.34Z"/>
          <path class="cls-4" d="M504.06,299.59c-5.53,41.27-10.68,82.58-15.43,123.95-12.23,3.1-24.59,5.95-36.96,8.45,1.64-18.71,3.35-37.43,5.16-56.12-11.32,2.45-16.98,3.59-28.33,5.56-.98,11.4-1.92,22.8-2.83,34.21-12.6,2.05-25.41,3.55-38.13,4.63,.93-13.47,1.43-20.19,2.45-33.68-4.05,.41-6.06,.6-10.11,.98,.6-8.88,.92-13.32,1.57-22.21,3.7-.35,5.54-.53,9.23-.92,1.28-16.86,2.62-33.73,4.01-50.59-.16-.07-.31-.16-.47-.23-.11-.92-.27-1.8-.78-2.61-2.71-4.23-4.61-8.76-5.91-13.5h-.01c-.54-2.02-.98-4.07-1.32-6.16-.45-2.73-.64-5.5,.27-8.18,.51-1.49-.23-3.43,1.68-4.69,.76,1.98,1.46,3.83,2.17,5.65,.17,.43,.47,.77,.99,.8,.54,.02,.83-.35,1.04-.76,.95-1.92,1.81-3.91,1.8-6.1-.02-2.64,.93-5.11,1.22-7.68,.04-.37,.53-.7,.8-1.03,1.76,.91,1.18,3.15,2.5,4.17,.74,.3,.88-.23,.99-.63,1.74-6.69,4.73-12.91,7.25-19.31,1.34-3.43,2.44-6.91,2.95-10.56,.06-.43,.08-.97,.58-1.03,.54-.07,.81,.43,.92,.87,.7,2.97,1.35,5.95,2.03,8.93,1.86,8.06,3.45,16.15,2.85,24.49-.04,.56,0,1.12,0,2.08,3.26-2.25,3.41-6.59,6.94-8.07,1.24,2.97,1.34,5.99,1.34,9.02,0,.24,.23,.59,.43,.68,.23,.08,.63,0,.81-.16,.46-.41,.89-.86,1.21-1.38,2.28-3.62,5.01-6.96,6.96-10.8,.21-.4,.5-.75,.89-1.32,1.32,1.84,1.35,3.66,1.86,5.33,1.09,3.54,1.92,7.08,1.71,10.82-.04,.56-.12,1.29,.68,1.51,.68,.19,1.18-.23,1.59-.65,2.89-2.96,6.14-5.56,8.49-9.02,.57-.85,1.17-1.81,2.62-2.1,.74,3.66,1.51,7.15,.77,11.05-.8,4.2-1.34,8.42-2.81,12.48-.23,.64-.47,1.27-.72,1.9-2.19,5.35-5.27,10.19-8.79,14.77-1.59,2.05-3.35,3.99-4.96,6.01-.36,.46-.5,1.11-.74,1.67-.14-.01-.29-.02-.43-.02-1.33,13.13-2.63,26.26-3.9,39.4,11.71-2.05,17.56-3.22,29.25-5.75,1.34-12.14,2.73-24.26,4.15-36.38,4.92-3.02,9.02-6.7,12.29-11.04,9.41-2.17,18.79-4.42,28.19-6.73Z"/>
          <path class="cls-4" d="M602.29,273.96c-16.59,4.05-33.15,8.27-49.7,12.58-15.6,3.26-30.22,13.8-32.91,30.22-3.66,26.65-7.16,53.33-10.53,80.04-2.27,15.8,12.54,19.47,25.07,14.7,15.41-4.3,30.81-8.62,46.24-12.81,15.53-4.26,28.82-13.54,32.21-30,4.82-26.38,9.78-52.73,14.9-79.06,4.41-17.26-12.84-18.89-25.29-15.66Zm-27.31,104.76c-11.24,3.03-16.86,4.6-28.1,7.71,3.9-26.61,7.96-53.19,12.16-79.75,11.76-3.1,17.64-4.65,29.41-7.61-4.65,26.52-9.13,53.08-13.47,79.65Z"/>
        </g>
        <g>
          <path class="cls-4" d="M706.71,258.59c-.05,.21-.1,.4-.13,.6,.14,.08,.29,.16,.45,.23-.08-.29-.18-.58-.31-.83Z"/>
          <path class="cls-4" d="M814.57,249.56c-1.59,4.05-2.04,7.93-1.04,11.67,.52,1.96,1.44,3.86,2.78,5.75,.08-.04,.16-.08,.24-.12-1.76,5.4-3.06,9.36-5.16,15.88-7.07-1.17-14.14-2.25-21.26-3.16-5.69,1.5-11.53,2.27-17.58,2.37-4.12,.06-8.19-.04-12.26-.3-1.58,5.54-2.72,9.57-4.59,16.22,16.46,.86,32.87,2.97,49.14,5.6-2.63,8.51-3.94,12.78-6.53,21.32-15.99-2.46-32.1-4.38-48.27-4.99-3.53,12.86-5.27,19.31-8.7,32.22-4.35,15.63-18.78,21.4-33.83,22.43-11.2,.68-16.79,1.22-27.96,2.62,2.02-9.07,3.03-13.6,5.08-22.66,3.73-.42,5.6-.63,9.35-.98,6.1-.5,9.96-4.03,11.63-10.78,2.11-8.71,3.18-13.06,5.33-21.75-7.62,.42-11.43,.74-19.02,1.5,2.07-8.95,3.1-13.41,5.22-22.34,7.51-.76,11.27-1.06,18.79-1.5,2.42-8.78,3.65-13.16,6.11-21.92-7.93,.35-11.9,.64-19.81,1.36,1.75-7.67,2.75-12,4.34-18.79,.14,.08,.29,.16,.45,.23-.08-.29-.18-.58-.31-.83-.24-.53-.62-.95-1.23-1.17,.54-2.9-.98-5.37-1.78-7.96-.71-2.29-1.32-4.6-1.85-6.92-1.26-5.58-2.02-11.21-2.48-16.85,1.62-.97,1.93,.34,2.48,.93,1.65,1.82,3.53,1.98,5.5,.75,2.8-1.75,5.8-3.33,8.24-5.52,7.04-6.29,13.85-12.83,18.55-21.21,4.59-8.18,7.33-16.78,6.58-26.23-.17-2.02-.78-3.99-1.14-5.98-.34-1.88,.89-3.38,2.46-2.69,6.62,2.96,11.28-.69,15.83-4.53,5.35-4.52,8.62-10.65,12.35-16.44,.93-1.46,1.24-3.37,3.43-4.47,1.44,1.26,.69,3.15,1.07,4.69,.36,1.47,.91,2.93,1.12,4.43,.97,6.59,3.04,12.81,5.4,19.05,3.49,9.28,6.85,18.64,8.74,28.43,.36,1.9,1.84,2.26,3.33,.88,2.26-2.07,4.42-4.21,6.09-6.84,1.2-1.88,2.63-3.63,4.37-4.55,1.49,.43,1.4,1.28,1.38,1.97-.12,2.8,.04,5.68-.58,8.36-.65,2.79-.57,5.58-.98,8.32-1.59,10.89-1.53,21.84-1.55,32.79,0,1.79-.04,3.57,.04,5.35,.04,.62-.01,1.29,.24,1.84,.14,.33,.39,.6,.78,.82,.94,.5,1.69,.1,2.37-.4,.13-.1,.27-.19,.39-.29,2.8-2.2,5.54-4.49,8.38-6.64,.52-.4,1.55-.63,2.08-.37,1.04,.48,1.03,1.63,.75,2.63-.54,2.03-1.01,4.09-1.62,6.1-.27,.92-.56,1.81-.91,2.69Z"/>
          <path class="cls-4" d="M928.36,311.56c3.19-8.15,4.79-12.22,8.03-20.36-36.05-11.1-72.29-20.74-109.31-27.99-2.63,8.26-3.94,12.39-6.55,20.66,7.95,1.38,11.91,2.14,19.83,3.74-2.84,8.42-4.25,12.62-7.05,21.04-7.79-1.55-11.69-2.27-19.5-3.59-2.61,8.32-3.9,12.49-6.49,20.82,7.61,1.28,11.4,1.99,18.99,3.5-4.11,12.5-6.14,18.77-10.16,31.3-4.7,15,8.21,24.47,21.84,26.45,18.7,4.35,37.26,9.31,55.63,14.89,2.86-7.93,4.31-11.9,7.21-19.83-12.19-3.65-24.49-7.07-36.82-10.19-6.87-2.02-9.07-6.36-6.57-13.19,2.9-8.29,4.36-12.44,7.29-20.71,16.04,4.11,31.96,8.66,47.77,13.55,3.07-8.09,4.61-12.15,7.72-20.23-15.95-4.89-32-9.46-48.16-13.59,2.87-8.15,4.32-12.23,7.23-20.37,16.45,4.41,32.79,9.12,49.08,14.09Z"/>
          <path class="cls-4" d="M1044.75,351.59c3.64-7.89,5.46-11.84,9.12-19.71-22.77-8.3-45.56-16.57-68.47-24.47-13.49-5.7-30.99-4.75-37.51,10.16-4.96,12.15-7.43,18.22-12.31,30.4-.01,11.98,12.98,19.18,22.49,24.25,10.48,6.11,15.7,9.21,26.07,15.45-3.42,7.68-5.12,11.52-8.5,19.2-18.55-6.65-37.2-13.04-55.95-19.11-3.06,8.04-4.58,12.08-7.6,20.13,21.74,7.08,43.32,14.55,64.84,22.27,13.27,4.82,28.88,5.07,35.65-9.38,5.47-12.04,8.21-18.06,13.77-30.07,.97-12.16-11.94-19.88-21.47-25.08-10.41-6.23-15.64-9.35-26.16-15.5,3.28-7.73,4.93-11.59,8.24-19.31,19.31,6.78,38.56,13.74,57.79,20.77Z"/>
          <path class="cls-4" d="M1166.8,359.27s.05,.1,.08,.14c.05-.02,.1-.05,.14-.07-.07-.02-.16-.05-.23-.07Z"/>
          <path class="cls-4" d="M1156.95,379.39c.07,.02,.11,.04,.19,.06-.1,.01-.14,.02-.23,.04-8.21,14.76-24.87,14.6-39.2,9.57-.04-.01-.06-.01-.1-.02-.19,.06-.29,.1-.47,.17-13.47,25.86-26.75,51.8-39.85,77.84-12.14-4.35-24.24-8.78-36.33-13.26,12.58-26.23,25.34-52.37,38.28-78.43-11.49-4.17-17.25-6.27-28.76-10.48,3.95-8.06,5.94-12.08,9.94-20.12,13.03,4.75,26.07,9.47,39.13,14.15,3.06,1.1,6.1,2.19,9.15,3.27,6.22,2.37,10.88,.54,14.03-5.41,.47-.91,.89-1.71,1.29-2.46,1.75-5.13,4.18-9.98,7.02-14.64,1.3-2.15,2.61-4.29,3.96-6.41,.94-1.5,1.9-2.98,2.89-4.44,6.14-9.12,6.67-19.06,4.47-29.42-.04-.16,.08-.35,.13-.56,.86-.63,1.23,.12,1.64,.65,.57,.72,1,1.58,1.65,2.23,7.75,7.68,11.15,17.42,13.18,27.79,.82,4.21,1.5,8.45,2.33,12.67,.59,3.07,1.27,6.11,2.13,9.13,.8,2.8,1.82,5.5,3.37,7.97,.02,.05,.05,.1,.08,.14,.05-.02,.1-.05,.14-.07,.24,.08,.48,.16,.72,.24-4.35,7.92-6.51,11.88-10.81,19.81Z"/>
        </g>
      </g>
      <g>
        <path class="cls-1" d="M446.77,202.48v.11s-.05-.07-.07-.11h.07Z"/>
        <path class="cls-1" d="M446.77,202.48l-.2-.03s.12,.04,.12,.03,.08,0,.08,0Z"/>
      </g>
      <path class="cls-1" d="M705.48,257.42s-.01,.11-.02,.16c-.01-.01-.02-.01-.04-.02-.02-.06-.02-.11-.02-.17,.02,.01,.06,.02,.08,.04Z"/>
      <path class="cls-1" d="M805.5,245.44c-.68,.5-1.43,.89-2.37,.4-.4-.22-.64-.5-.78-.82,1.05,.13,2.1,.28,3.15,.42Z"/>
      <path class="cls-3" d="M705.48,257.42s-.01,.11-.02,.16l-.06-.19s.06,.02,.08,.04Z"/>
      <path class="cls-1" d="M707.02,259.43c-.16-.07-.3-.15-.45-.23-.63-.36-1.09-.86-1.16-1.64-.02-.06-.02-.11-.02-.17,.02,.01,.06,.02,.08,.04,.62,.22,.99,.64,1.23,1.17,.13,.25,.23,.54,.31,.83Z"/>
    </g>
  </g>
</svg>