<svg width="251" height="266" viewBox="0 0 251 266" fill="none" xmlns="http://www.w3.org/2000/svg">
<path d="M251 0L226.128 24.6068H136.903L137.881 253.787L125.119 266L112.611 253.787L112.321 24.4981H24.5815L0 0H251Z" fill="white"/>
<path d="M59.4597 115.532L76.6812 133.145L76.5 176.923L50.6857 151.41V55.4106H76.645V84.9823H104.308L104.018 34.5365H24.3276C24.5452 41.9294 24.5089 86.0695 24.3276 165.725L104.018 244.981L104.453 115.46H59.4597V115.532Z" fill="white"/>
<path d="M225.983 116.873V34.9714H145.495L145.459 44.5024C145.604 51.0618 145.713 62.8398 145.713 87.1204L193.716 134.739V161.122L177.944 177.068V147.532L145.713 115.967V146.264L145.894 245.851L225.983 165.906V132.964L177.908 85.4171V57.5125H194.006V85.2722L225.983 116.873Z" fill="white"/>
</svg>
